{
  "accessors": [
    {
      "bufferView": 2,
      "componentType": 5126,
      "count": 1535,
      "max": [
        0.29623347520828247,
        0.840050995349884,
        1.3075037002563477
      ],
      "min": [
        -0.18000945448875427,
        -0.8777962327003479,
        0.0028349757194519043
      ],
      "type": "VEC3"
    },
    {
      "bufferView": 2,
      "byteOffset": 18420,
      "componentType": 5126,
      "count": 1535,
      "max": [
        1.0,
        1.0,
        1.0
      ],
      "min": [
        -1.0,
        -1.0,
        -1.0
      ],
      "type": "VEC3"
    },
    {
      "bufferView": 1,
      "componentType": 5126,
      "count": 1535,
      "max": [
        0.8750000596046448,
        1.0
      ],
      "min": [
        0.0,
        0.0
      ],
      "type": "VEC2"
    },
    {
      "bufferView": 1,
      "byteOffset": 12280,
      "componentType": 5126,
      "count": 1535,
      "max": [
        0.875,
        1.0
      ],
      "min": [
        0.0,
        0.0
      ],
      "type": "VEC2"
    },
    {
      "bufferView": 0,
      "componentType": 5125,
      "count": 5694,
      "type": "SCALAR"
    },
    {
      "bufferView": 2,
      "byteOffset": 36840,
      "componentType": 5126,
      "count": 40,
      "max": [
        0.1787301003932953,
        0.804222822189331,
        1.2648391723632813
      ],
      "min": [
        0.12407974898815155,
        -0.8423409461975098,
        0.37170928716659546
      ],
      "type": "VEC3"
    },
    {
      "bufferView": 2,
      "byteOffset": 37320,
      "componentType": 5126,
      "count": 40,
      "max": [
        0.9989250302314758,
        0.0004272675432730466,
        0.05707143619656563
      ],
      "min": [
        0.9983533620834351,
        -0.013336842879652977,
        0.045809369534254074
      ],
      "type": "VEC3"
    },
    {
      "bufferView": 1,
      "byteOffset": 24560,
      "componentType": 5126,
      "count": 40,
      "max": [
        1.000119924545288,
        0.9994169473648071
      ],
      "min": [
        0.0011201631277799606,
        0.0016480684280395508
      ],
      "type": "VEC2"
    },
    {
      "bufferView": 1,
      "byteOffset": 24880,
      "componentType": 5126,
      "count": 40,
      "max": [
        0.0,
        0.0
      ],
      "min": [
        0.0,
        0.0
      ],
      "type": "VEC2"
    },
    {
      "bufferView": 0,
      "byteOffset": 22776,
      "componentType": 5125,
      "count": 150,
      "type": "SCALAR"
    },
    {
      "bufferView": 2,
      "byteOffset": 37800,
      "componentType": 5126,
      "count": 864,
      "max": [
        0.1812494695186615,
        0.01977231726050377,
        0.37924647331237793
      ],
      "min": [
        -0.07200916856527328,
        -0.07504959404468536,
        0.06516271829605103
      ],
      "type": "VEC3"
    },
    {
      "bufferView": 2,
      "byteOffset": 48168,
      "componentType": 5126,
      "count": 864,
      "max": [
        0.9999780654907227,
        0.996670126914978,
        0.9985998868942261
      ],
      "min": [
        -0.9986544847488403,
        -0.996670126914978,
        -0.9998810887336731
      ],
      "type": "VEC3"
    },
    {
      "bufferView": 1,
      "byteOffset": 25200,
      "componentType": 5126,
      "count": 864,
      "max": [
        1.0,
        0.6465021967887878
      ],
      "min": [
        0.0,
        0.0
      ],
      "type": "VEC2"
    },
    {
      "bufferView": 1,
      "byteOffset": 32112,
      "componentType": 5126,
      "count": 864,
      "max": [
        1.0,
        1.0
      ],
      "min": [
        0.0,
        0.0
      ],
      "type": "VEC2"
    },
    {
      "bufferView": 0,
      "byteOffset": 23376,
      "componentType": 5125,
      "count": 1266,
      "type": "SCALAR"
    },
    {
      "bufferView": 2,
      "byteOffset": 58536,
      "componentType": 5126,
      "count": 760,
      "max": [
        0.05379897356033325,
        0.15023377537727356,
        1.1804097890853882
      ],
      "min": [
        0.03273799270391464,
        -0.19152802228927612,
        1.0510013103485107
      ],
      "type": "VEC3"
    },
    {
      "bufferView": 2,
      "byteOffset": 67656,
      "componentType": 5126,
      "count": 760,
      "max": [
        0.9901391267776489,
        0.9966310858726501,
        0.986133873462677
      ],
      "min": [
        -0.9923218488693237,
        -0.9966309666633606,
        -0.9861416816711426
      ],
      "type": "VEC3"
    },
    {
      "bufferView": 1,
      "byteOffset": 39024,
      "componentType": 5126,
      "count": 760,
      "max": [
        1.0,
        0.0
      ],
      "min": [
        0.0,
        0.0
      ],
      "type": "VEC2"
    },
    {
      "bufferView": 1,
      "byteOffset": 45104,
      "componentType": 5126,
      "count": 760,
      "max": [
        1.0,
        1.0
      ],
      "min": [
        0.0,
        0.0
      ],
      "type": "VEC2"
    },
    {
      "bufferView": 0,
      "byteOffset": 28440,
      "componentType": 5125,
      "count": 1026,
      "type": "SCALAR"
    }
  ],
  "asset": {
    "extras": {
      "author": "Mohamed Ahmed (https://sketchfab.com/Ma16.q)",
      "license": "CC-BY-4.0 (http://creativecommons.org/licenses/by/4.0/)",
      "source": "https://sketchfab.com/3d-models/lg-moniter-f899bb43701f4e95b1e44c4bf21ed29c",
      "title": "LG moniter"
    },
    "generator": "Sketchfab-12.67.0",
    "version": "2.0"
  },
  "bufferViews": [
    {
      "buffer": 0,
      "byteLength": 32544,
      "name": "floatBufferViews",
      "target": 34963
    },
    {
      "buffer": 0,
      "byteLength": 51184,
      "byteOffset": 32544,
      "byteStride": 8,
      "name": "floatBufferViews",
      "target": 34962
    },
    {
      "buffer": 0,
      "byteLength": 76776,
      "byteOffset": 83728,
      "byteStride": 12,
      "name": "floatBufferViews",
      "target": 34962
    }
  ],
  "buffers": [
    {
      "byteLength": 160504,
      "uri": "scene.bin"
    }
  ],
  "images": [
    {
      "uri": "textures/desktop_baseColor.png"
    }
  ],
  "materials": [
    {
      "doubleSided": true,
      "name": "black",
      "pbrMetallicRoughness": {
        "baseColorFactor": [
          0.00393542,
          0.00393542,
          0.00393542,
          1.0
        ],
        "metallicFactor": 0.0,
        "roughnessFactor": 0.9991200133359988
      }
    },
    {
      "doubleSided": true,
      "emissiveFactor": [
        0.9580217395,
        0.9580217395,
        0.9580217395
      ],
      "emissiveTexture": {
        "index": 0
      },
      "name": "desktop",
      "pbrMetallicRoughness": {
        "baseColorTexture": {
          "index": 0
        },
        "metallicFactor": 0.0
      }
    },
    {
      "doubleSided": true,
      "name": "White",
      "pbrMetallicRoughness": {
        "baseColorFactor": [
          0.8,
          0.8,
          0.8,
          1.0
        ],
        "metallicFactor": 0.0,
        "roughnessFactor": 0.8040408205773457
      }
    },
    {
      "doubleSided": true,
      "name": "material",
      "pbrMetallicRoughness": {
        "baseColorFactor": [
          0.0331026,
          0.0331026,
          0.0331026,
          1.0
        ],
        "metallicFactor": 0.0,
        "roughnessFactor": 0.2807564295
      }
    }
  ],
  "meshes": [
    {
      "name": "Moniter_black_0",
      "primitives": [
        {
          "attributes": {
            "NORMAL": 1,
            "POSITION": 0,
            "TEXCOORD_0": 2,
            "TEXCOORD_1": 3
          },
          "indices": 4,
          "material": 0,
          "mode": 4
        }
      ]
    },
    {
      "name": "Moniter_desktop_0",
      "primitives": [
        {
          "attributes": {
            "NORMAL": 6,
            "POSITION": 5,
            "TEXCOORD_0": 7,
            "TEXCOORD_1": 8
          },
          "indices": 9,
          "material": 1,
          "mode": 4
        }
      ]
    },
    {
      "name": "Moniter_White_0",
      "primitives": [
        {
          "attributes": {
            "NORMAL": 11,
            "POSITION": 10,
            "TEXCOORD_0": 12,
            "TEXCOORD_1": 13
          },
          "indices": 14,
          "material": 2,
          "mode": 4
        }
      ]
    },
    {
      "name": "Moniter_a_0",
      "primitives": [
        {
          "attributes": {
            "NORMAL": 16,
            "POSITION": 15,
            "TEXCOORD_0": 17,
            "TEXCOORD_1": 18
          },
          "indices": 19,
          "material": 3,
          "mode": 4
        }
      ]
    }
  ],
  "nodes": [
    {
      "children": [
        1
      ],
      "matrix": [
        2.220446049250313e-16,
        -2.220446049250313e-16,
        1.0,
        0.0,
        1.0,
        4.930380657631324e-32,
        -2.220446049250313e-16,
        0.0,
        0.0,
        1.0,
        2.220446049250313e-16,
        0.0,
        -0.07263804972171783,
        -7.773341054837609e-09,
        -0.12200956791639328,
        1.0
      ],
      "name": "Sketchfab_model"
    },
    {
      "children": [
        2
      ],
      "matrix": [
        0.009999999776482582,
        0.0,
        0.0,
        0.0,
        0.0,
        0.0,
        0.009999999776482582,
        0.0,
        0.0,
        -0.009999999776482582,
        0.0,
        0.0,
        0.0,
        0.0,
        0.0,
        1.0
      ],
      "name": "56a7bb698d2a4675a0c2c93a83406875.fbx"
    },
    {
      "children": [
        3
      ],
      "name": "RootNode"
    },
    {
      "children": [
        4,
        5,
        6,
        7
      ],
      "matrix": [
        31.434429168701172,
        0.0,
        0.0,
        0.0,
        0.0,
        -5.121318556459197e-06,
        -31.434429168700756,
        0.0,
        0.0,
        31.434429168700756,
        -5.121318556459197e-06,
        0.0,
        0.0,
        -9.313225746154785e-08,
        0.0,
        1.0
      ],
      "name": "Moniter"
    },
    {
      "mesh": 0,
      "name": "Moniter_black_0"
    },
    {
      "mesh": 1,
      "name": "Moniter_desktop_0"
    },
    {
      "mesh": 2,
      "name": "Moniter_White_0"
    },
    {
      "mesh": 3,
      "name": "Moniter_a_0"
    }
  ],
  "samplers": [
    {
      "magFilter": 9729,
      "minFilter": 9987,
      "wrapS": 10497,
      "wrapT": 10497
    }
  ],
  "scene": 0,
  "scenes": [
    {
      "name": "Sketchfab_Scene",
      "nodes": [
        0
      ]
    }
  ],
  "textures": [
    {
      "sampler": 0,
      "source": 0
    }
  ]
}
