{
  "accessors": [
    {
      "bufferView": 2,
      "componentType": 5126,
      "count": 316,
      "max": [
        13.231380462646484,
        13.030366897583008,
        155.40643310546875
      ],
      "min": [
        -13.231380462646484,
        -21.73597526550293,
        0.0
      ],
      "type": "VEC3"
    },
    {
      "bufferView": 2,
      "byteOffset": 3792,
      "componentType": 5126,
      "count": 316,
      "max": [
        1.0,
        0.9848079085350037,
        1.0
      ],
      "min": [
        -1.0,
        -0.9848082661628723,
        -1.0
      ],
      "type": "VEC3"
    },
    {
      "bufferView": 1,
      "componentType": 5126,
      "count": 316,
      "max": [
        0.5008947253227234,
        0.9799999594688416
      ],
      "min": [
        0.019999999552965164,
        0.019999999552965164
      ],
      "type": "VEC2"
    },
    {
      "bufferView": 1,
      "byteOffset": 2528,
      "componentType": 5126,
      "count": 316,
      "max": [
        0.5008947253227234,
        0.9799999594688416
      ],
      "min": [
        0.019999999552965164,
        0.019999999552965164
      ],
      "type": "VEC2"
    },
    {
      "bufferView": 1,
      "byteOffset": 5056,
      "componentType": 5126,
      "count": 316,
      "max": [
        0.5008947253227234,
        0.9799999594688416
      ],
      "min": [
        0.019999999552965164,
        0.019999999552965164
      ],
      "type": "VEC2"
    },
    {
      "bufferView": 0,
      "componentType": 5125,
      "count": 924,
      "type": "SCALAR"
    },
    {
      "bufferView": 2,
      "byteOffset": 7584,
      "componentType": 5126,
      "count": 688,
      "max": [
        14.667474746704102,
        44.84484100341797,
        182.03932189941406
      ],
      "min": [
        -14.667481422424316,
        2.7624778747558594,
        152.71676635742188
      ],
      "type": "VEC3"
    },
    {
      "bufferView": 2,
      "byteOffset": 15840,
      "componentType": 5126,
      "count": 688,
      "max": [
        1.0,
        1.0,
        1.0
      ],
      "min": [
        -1.0,
        -1.0,
        -1.0
      ],
      "type": "VEC3"
    },
    {
      "bufferView": 1,
      "byteOffset": 7584,
      "componentType": 5126,
      "count": 688,
      "max": [
        0.9743363857269287,
        0.9530149102210999
      ],
      "min": [
        0.019999999552965164,
        0.019999999552965164
      ],
      "type": "VEC2"
    },
    {
      "bufferView": 1,
      "byteOffset": 13088,
      "componentType": 5126,
      "count": 688,
      "max": [
        0.9743363857269287,
        0.9530149102210999
      ],
      "min": [
        0.019999999552965164,
        0.019999999552965164
      ],
      "type": "VEC2"
    },
    {
      "bufferView": 1,
      "byteOffset": 18592,
      "componentType": 5126,
      "count": 688,
      "max": [
        0.9743363857269287,
        0.9530149102210999
      ],
      "min": [
        0.019999999552965164,
        0.019999999552965164
      ],
      "type": "VEC2"
    },
    {
      "bufferView": 0,
      "byteOffset": 3696,
      "componentType": 5125,
      "count": 1416,
      "type": "SCALAR"
    }
  ],
  "asset": {
    "extras": {
      "author": "khanhnguyen1189 (https://sketchfab.com/khanhnguyen1189)",
      "license": "CC-BY-4.0 (http://creativecommons.org/licenses/by/4.0/)",
      "source": "https://sketchfab.com/3d-models/stand-light-1-d6ac91c7fce84d29b2a8c6253d7f3d8f",
      "title": "Stand Light 1"
    },
    "generator": "Sketchfab-12.67.0",
    "version": "2.0"
  },
  "bufferViews": [
    {
      "buffer": 0,
      "byteLength": 9360,
      "name": "floatBufferViews",
      "target": 34963
    },
    {
      "buffer": 0,
      "byteLength": 24096,
      "byteOffset": 9360,
      "byteStride": 8,
      "name": "floatBufferViews",
      "target": 34962
    },
    {
      "buffer": 0,
      "byteLength": 24096,
      "byteOffset": 33456,
      "byteStride": 12,
      "name": "floatBufferViews",
      "target": 34962
    }
  ],
  "buffers": [
    {
      "byteLength": 57552,
      "uri": "scene.bin"
    }
  ],
  "extensionsRequired": [
    "KHR_materials_pbrSpecularGlossiness"
  ],
  "extensionsUsed": [
    "KHR_materials_pbrSpecularGlossiness"
  ],
  "images": [
    {
      "uri": "textures/Stand_Light_diffuse.png"
    },
    {
      "uri": "textures/Stand_Light_specularGlossiness.png"
    },
    {
      "uri": "textures/Stand_Light_emissive.png"
    }
  ],
  "materials": [
    {
      "doubleSided": true,
      "emissiveFactor": [
        1.0,
        1.0,
        1.0
      ],
      "emissiveTexture": {
        "index": 2
      },
      "extensions": {
        "KHR_materials_pbrSpecularGlossiness": {
          "diffuseFactor": [
            1.0,
            1.0,
            1.0,
            1.0
          ],
          "diffuseTexture": {
            "index": 0
          },
          "glossinessFactor": 1.0,
          "specularFactor": [
            1.0,
            1.0,
            1.0
          ],
          "specularGlossinessTexture": {
            "index": 1
          }
        }
      },
      "name": "Stand_Light"
    }
  ],
  "meshes": [
    {
      "name": "Cylinder001_Stand_Light_0",
      "primitives": [
        {
          "attributes": {
            "NORMAL": 1,
            "POSITION": 0,
            "TEXCOORD_0": 2,
            "TEXCOORD_1": 3,
            "TEXCOORD_2": 4
          },
          "indices": 5,
          "material": 0,
          "mode": 4
        }
      ]
    },
    {
      "name": "Object004_Stand_Light_0",
      "primitives": [
        {
          "attributes": {
            "NORMAL": 7,
            "POSITION": 6,
            "TEXCOORD_0": 8,
            "TEXCOORD_1": 9,
            "TEXCOORD_2": 10
          },
          "indices": 11,
          "material": 0,
          "mode": 4
        }
      ]
    }
  ],
  "nodes": [
    {
      "children": [
        1
      ],
      "matrix": [
        1.0,
        0.0,
        0.0,
        0.0,
        0.0,
        2.220446049250313e-16,
        -1.0,
        0.0,
        0.0,
        1.0,
        2.220446049250313e-16,
        0.0,
        0.0,
        0.0,
        0.0,
        1.0
      ],
      "name": "Sketchfab_model"
    },
    {
      "children": [
        2
      ],
      "matrix": [
        1.0,
        0.0,
        0.0,
        0.0,
        0.0,
        0.0,
        1.0,
        0.0,
        0.0,
        -1.0,
        0.0,
        0.0,
        0.0,
        0.0,
        0.0,
        1.0
      ],
      "name": "Stand_Light_1.FBX"
    },
    {
      "children": [
        3,
        5
      ],
      "name": "RootNode"
    },
    {
      "children": [
        4
      ],
      "matrix": [
        0.8311343193054199,
        0.0,
        0.0,
        0.0,
        0.0,
        1.845488915698068e-16,
        -0.8311343193054199,
        0.0,
        0.0,
        0.8311343193054199,
        1.845488915698068e-16,
        0.0,
        28.62385368347168,
        0.0,
        3.208934783935547,
        1.0
      ],
      "name": "Cylinder001"
    },
    {
      "mesh": 0,
      "name": "Cylinder001_Stand_Light_0"
    },
    {
      "children": [
        6
      ],
      "matrix": [
        0.4767194179916086,
        0.0,
        -0.6808251267667974,
        0.0,
        -0.6808251267667974,
        0.0,
        -0.4767194179916087,
        0.0,
        0.0,
        0.8311343193054199,
        0.0,
        0.0,
        28.62385368347168,
        129.97821044921875,
        20.3410701751709,
        1.0
      ],
      "name": "Object004"
    },
    {
      "children": [
        7
      ],
      "matrix": [
        1.0,
        0.0,
        -0.0,
        0.0,
        0.0,
        1.0,
        0.0,
        0.0,
        0.0,
        0.0,
        1.0,
        0.0,
        4.7902703954605386e-06,
        -3.8854992389678955,
        -154.184814453125,
        1.0
      ],
      "name": "Object_6"
    },
    {
      "mesh": 1,
      "name": "Object004_Stand_Light_0"
    }
  ],
  "samplers": [
    {
      "magFilter": 9729,
      "minFilter": 9987,
      "wrapS": 10497,
      "wrapT": 10497
    }
  ],
  "scene": 0,
  "scenes": [
    {
      "name": "Sketchfab_Scene",
      "nodes": [
        0
      ]
    }
  ],
  "textures": [
    {
      "sampler": 0,
      "source": 0
    },
    {
      "sampler": 0,
      "source": 1
    },
    {
      "sampler": 0,
      "source": 2
    }
  ]
}
