{
  "accessors": [
    {
      "bufferView": 2,
      "componentType": 5126,
      "count": 4249,
      "max": [
        50.540855407714844,
        46.485416412353516,
        44.409828186035156
      ],
      "min": [
        -46.857627868652344,
        -15.562041282653809,
        6.962961196899414
      ],
      "type": "VEC3"
    },
    {
      "bufferView": 2,
      "byteOffset": 50988,
      "componentType": 5126,
      "count": 4249,
      "max": [
        1.0,
        1.0,
        0.9999875426292419
      ],
      "min": [
        -0.991428554058075,
        -1.0,
        -1.0
      ],
      "type": "VEC3"
    },
    {
      "bufferView": 1,
      "componentType": 5126,
      "count": 4249,
      "max": [
        0.9962063431739807,
        0.9989344477653503
      ],
      "min": [
        0.0005000000237487257,
        0.0005000000237487257
      ],
      "type": "VEC2"
    },
    {
      "bufferView": 0,
      "componentType": 5125,
      "count": 11760,
      "type": "SCALAR"
    },
    {
      "bufferView": 2,
      "byteOffset": 101976,
      "componentType": 5126,
      "count": 112,
      "max": [
        32.81498718261719,
        46.485416412353516,
        27.172222137451172
      ],
      "min": [
        -36.726112365722656,
        -15.562041282653809,
        9.08731460571289
      ],
      "type": "VEC3"
    },
    {
      "bufferView": 2,
      "byteOffset": 103320,
      "componentType": 5126,
      "count": 112,
      "max": [
        0.16292288899421692,
        1.0,
        0.809070885181427
      ],
      "min": [
        -0.6306084990501404,
        -1.0,
        -0.2725120186805725
      ],
      "type": "VEC3"
    },
    {
      "bufferView": 3,
      "componentType": 5126,
      "count": 112,
      "max": [
        0.9855331778526306,
        0.4096018075942993,
        -0.16595245897769928,
        1.0
      ],
      "min": [
        -0.06577987968921661,
        -0.8200283646583557,
        -1.0,
        1.0
      ],
      "type": "VEC4"
    },
    {
      "bufferView": 1,
      "byteOffset": 33992,
      "componentType": 5126,
      "count": 112,
      "max": [
        0.9842842817306519,
        0.999500036239624
      ],
      "min": [
        0.3039608299732208,
        0.09407190978527069
      ],
      "type": "VEC2"
    },
    {
      "bufferView": 0,
      "byteOffset": 47040,
      "componentType": 5125,
      "count": 438,
      "type": "SCALAR"
    },
    {
      "bufferView": 2,
      "byteOffset": 104664,
      "componentType": 5126,
      "count": 106,
      "max": [
        16.025169372558594,
        19.612308502197266,
        44.973777770996094
      ],
      "min": [
        3.7313709259033203,
        11.311066627502441,
        42.821571350097656
      ],
      "type": "VEC3"
    },
    {
      "bufferView": 2,
      "byteOffset": 105936,
      "componentType": 5126,
      "count": 106,
      "max": [
        0.992114245891571,
        1.0,
        0.9970980286598206
      ],
      "min": [
        -0.9921141862869263,
        -1.0,
        -0.1252918839454651
      ],
      "type": "VEC3"
    },
    {
      "bufferView": 1,
      "byteOffset": 34888,
      "componentType": 5126,
      "count": 106,
      "max": [
        0.8774673342704773,
        0.9677361249923706
      ],
      "min": [
        0.3167111277580261,
        0.15415042638778687
      ],
      "type": "VEC2"
    },
    {
      "bufferView": 0,
      "byteOffset": 48792,
      "componentType": 5125,
      "count": 108,
      "type": "SCALAR"
    },
    {
      "bufferView": 2,
      "byteOffset": 107208,
      "componentType": 5126,
      "count": 7453,
      "max": [
        101.21633911132813,
        73.2400131225586,
        16.24079132080078
      ],
      "min": [
        38.773231506347656,
        14.72065258026123,
        2.025836944580078
      ],
      "type": "VEC3"
    },
    {
      "bufferView": 2,
      "byteOffset": 196644,
      "componentType": 5126,
      "count": 7453,
      "max": [
        0.9928653836250305,
        0.9991082549095154,
        0.9999998807907104
      ],
      "min": [
        -1.0,
        -0.9999014139175415,
        -0.9999998211860657
      ],
      "type": "VEC3"
    },
    {
      "bufferView": 1,
      "byteOffset": 35736,
      "componentType": 5126,
      "count": 7453,
      "max": [
        0.8977535367012024,
        0.9979128837585449
      ],
      "min": [
        0.0005000000237487257,
        0.00600422965362668
      ],
      "type": "VEC2"
    },
    {
      "bufferView": 0,
      "byteOffset": 49224,
      "componentType": 5125,
      "count": 38016,
      "type": "SCALAR"
    },
    {
      "bufferView": 2,
      "byteOffset": 286080,
      "componentType": 5126,
      "count": 168,
      "max": [
        36.05451583862305,
        19.16827964782715,
        38.177574157714844
      ],
      "min": [
        21.579120635986328,
        12.074766159057617,
        23.92209243774414
      ],
      "type": "VEC3"
    },
    {
      "bufferView": 2,
      "byteOffset": 288096,
      "componentType": 5126,
      "count": 168,
      "max": [
        1.0,
        1.0,
        0.9848079085350037
      ],
      "min": [
        -1.0,
        -1.0,
        -0.9848078489303589
      ],
      "type": "VEC3"
    },
    {
      "bufferView": 3,
      "byteOffset": 1792,
      "componentType": 5126,
      "count": 168,
      "max": [
        1.0,
        1.0,
        1.0080130778078455e-05,
        1.0
      ],
      "min": [
        -0.6427872180938721,
        -1.0,
        -1.0,
        1.0
      ],
      "type": "VEC4"
    },
    {
      "bufferView": 1,
      "byteOffset": 95360,
      "componentType": 5126,
      "count": 168,
      "max": [
        0.9789443016052246,
        0.9470025300979614
      ],
      "min": [
        0.24268606305122375,
        0.3851223587989807
      ],
      "type": "VEC2"
    },
    {
      "bufferView": 0,
      "byteOffset": 201288,
      "componentType": 5125,
      "count": 636,
      "type": "SCALAR"
    },
    {
      "bufferView": 2,
      "byteOffset": 290112,
      "componentType": 5126,
      "count": 72,
      "max": [
        36.05451583862305,
        19.16827964782715,
        38.177574157714844
      ],
      "min": [
        21.579120635986328,
        12.074766159057617,
        23.92209243774414
      ],
      "type": "VEC3"
    },
    {
      "bufferView": 2,
      "byteOffset": 290976,
      "componentType": 5126,
      "count": 72,
      "max": [
        0.0,
        1.0,
        0.0
      ],
      "min": [
        0.0,
        -1.0,
        0.0
      ],
      "type": "VEC3"
    },
    {
      "bufferView": 1,
      "byteOffset": 96704,
      "componentType": 5126,
      "count": 72,
      "max": [
        0.9911782145500183,
        0.959425151348114
      ],
      "min": [
        0.6665117144584656,
        0.3747875988483429
      ],
      "type": "VEC2"
    },
    {
      "bufferView": 0,
      "byteOffset": 203832,
      "componentType": 5125,
      "count": 216,
      "type": "SCALAR"
    },
    {
      "bufferView": 2,
      "byteOffset": 291840,
      "componentType": 5126,
      "count": 444,
      "max": [
        45.4398193359375,
        17.33903694152832,
        16.974422454833984
      ],
      "min": [
        30.03851890563965,
        13.549787521362305,
        13.242740631103516
      ],
      "type": "VEC3"
    },
    {
      "bufferView": 2,
      "byteOffset": 297168,
      "componentType": 5126,
      "count": 444,
      "max": [
        1.0,
        1.0,
        0.9848093390464783
      ],
      "min": [
        -1.0,
        -1.0,
        -0.9848083853721619
      ],
      "type": "VEC3"
    },
    {
      "bufferView": 1,
      "byteOffset": 97280,
      "componentType": 5126,
      "count": 444,
      "max": [
        0.9210280179977417,
        0.6951677799224854
      ],
      "min": [
        0.0005000055534765124,
        0.0005000000237487257
      ],
      "type": "VEC2"
    },
    {
      "bufferView": 0,
      "byteOffset": 204696,
      "componentType": 5125,
      "count": 1284,
      "type": "SCALAR"
    }
  ],
  "asset": {
    "extras": {
      "author": "Fred Drabble (https://sketchfab.com/FredDrabble)",
      "license": "CC-BY-4.0 (http://creativecommons.org/licenses/by/4.0/)",
      "source": "https://sketchfab.com/3d-models/razer-mouse-9f0a3283cbca4454bf04c8d43494247a",
      "title": "Razer Mouse"
    },
    "generator": "Sketchfab-12.67.0",
    "version": "2.0"
  },
  "bufferViews": [
    {
      "buffer": 0,
      "byteLength": 209832,
      "name": "floatBufferViews",
      "target": 34963
    },
    {
      "buffer": 0,
      "byteLength": 100832,
      "byteOffset": 209832,
      "byteStride": 8,
      "name": "floatBufferViews",
      "target": 34962
    },
    {
      "buffer": 0,
      "byteLength": 302496,
      "byteOffset": 310664,
      "byteStride": 12,
      "name": "floatBufferViews",
      "target": 34962
    },
    {
      "buffer": 0,
      "byteLength": 4480,
      "byteOffset": 613160,
      "byteStride": 16,
      "name": "floatBufferViews",
      "target": 34962
    }
  ],
  "buffers": [
    {
      "byteLength": 617640,
      "uri": "scene.bin"
    }
  ],
  "images": [
    {
      "uri": "textures/01_-_Default_baseColor.png"
    },
    {
      "uri": "textures/13_-_Default_baseColor.png"
    },
    {
      "uri": "textures/13_-_Default_normal.png"
    },
    {
      "uri": "textures/08_-_Default_baseColor.png"
    },
    {
      "uri": "textures/03_-_Default_baseColor.png"
    },
    {
      "uri": "textures/03_-_Default_normal.png"
    }
  ],
  "materials": [
    {
      "doubleSided": true,
      "name": "01_-_Default",
      "pbrMetallicRoughness": {
        "baseColorTexture": {
          "index": 0
        },
        "metallicFactor": 0.0,
        "roughnessFactor": 0.8929713596
      }
    },
    {
      "doubleSided": true,
      "name": "13_-_Default",
      "normalTexture": {
        "index": 2
      },
      "pbrMetallicRoughness": {
        "baseColorTexture": {
          "index": 1
        },
        "metallicFactor": 0.2700076219512195,
        "roughnessFactor": 0.6507240853658536
      }
    },
    {
      "doubleSided": true,
      "name": "02_-_Default",
      "pbrMetallicRoughness": {
        "baseColorTexture": {
          "index": 0
        },
        "metallicFactor": 0.0,
        "roughnessFactor": 0.8929713596
      }
    },
    {
      "doubleSided": true,
      "name": "08_-_Default",
      "pbrMetallicRoughness": {
        "baseColorTexture": {
          "index": 3
        },
        "metallicFactor": 0.0,
        "roughnessFactor": 0.8929713596
      }
    },
    {
      "doubleSided": true,
      "name": "03_-_Default",
      "normalTexture": {
        "index": 5
      },
      "pbrMetallicRoughness": {
        "baseColorTexture": {
          "index": 4
        },
        "metallicFactor": 0.0
      }
    },
    {
      "doubleSided": true,
      "emissiveFactor": [
        0.3147443650577376,
        1.0,
        0.0
      ],
      "name": "09_-_Default",
      "pbrMetallicRoughness": {
        "baseColorFactor": [
          0.0,
          0.9960779999999997,
          0.09019609999999996,
          1.0
        ],
        "metallicFactor": 0.0,
        "roughnessFactor": 0.8929713596
      }
    },
    {
      "doubleSided": true,
      "name": "07_-_Default",
      "pbrMetallicRoughness": {
        "baseColorTexture": {
          "index": 0
        },
        "metallicFactor": 0.0,
        "roughnessFactor": 0.8929713596
      }
    }
  ],
  "meshes": [
    {
      "name": "Box001_01 - Default_0",
      "primitives": [
        {
          "attributes": {
            "NORMAL": 1,
            "POSITION": 0,
            "TEXCOORD_0": 2
          },
          "indices": 3,
          "material": 0,
          "mode": 4
        }
      ]
    },
    {
      "name": "Box001_13 - Default_0",
      "primitives": [
        {
          "attributes": {
            "NORMAL": 5,
            "POSITION": 4,
            "TANGENT": 6,
            "TEXCOORD_0": 7
          },
          "indices": 8,
          "material": 1,
          "mode": 4
        }
      ]
    },
    {
      "name": "Box001_02 - Default_0",
      "primitives": [
        {
          "attributes": {
            "NORMAL": 10,
            "POSITION": 9,
            "TEXCOORD_0": 11
          },
          "indices": 12,
          "material": 2,
          "mode": 4
        }
      ]
    },
    {
      "name": "Box001_08 - Default_0",
      "primitives": [
        {
          "attributes": {
            "NORMAL": 14,
            "POSITION": 13,
            "TEXCOORD_0": 15
          },
          "indices": 16,
          "material": 3,
          "mode": 4
        }
      ]
    },
    {
      "name": "Box001_03 - Default_0",
      "primitives": [
        {
          "attributes": {
            "NORMAL": 18,
            "POSITION": 17,
            "TANGENT": 19,
            "TEXCOORD_0": 20
          },
          "indices": 21,
          "material": 4,
          "mode": 4
        }
      ]
    },
    {
      "name": "Box001_09 - Default_0",
      "primitives": [
        {
          "attributes": {
            "NORMAL": 23,
            "POSITION": 22,
            "TEXCOORD_0": 24
          },
          "indices": 25,
          "material": 5,
          "mode": 4
        }
      ]
    },
    {
      "name": "Box001_07 - Default_0",
      "primitives": [
        {
          "attributes": {
            "NORMAL": 27,
            "POSITION": 26,
            "TEXCOORD_0": 28
          },
          "indices": 29,
          "material": 6,
          "mode": 4
        }
      ]
    }
  ],
  "nodes": [
    {
      "children": [
        1
      ],
      "matrix": [
        1.0,
        0.0,
        0.0,
        0.0,
        0.0,
        2.220446049250313e-16,
        -1.0,
        0.0,
        0.0,
        1.0,
        2.220446049250313e-16,
        0.0,
        0.0,
        0.0,
        0.0,
        1.0
      ],
      "name": "Sketchfab_model"
    },
    {
      "children": [
        2
      ],
      "matrix": [
        1.0,
        0.0,
        0.0,
        0.0,
        0.0,
        0.0,
        1.0,
        0.0,
        0.0,
        -1.0,
        0.0,
        0.0,
        0.0,
        0.0,
        0.0,
        1.0
      ],
      "name": "3111b06e9d0045e4819a0e9fa4247c02.fbx"
    },
    {
      "children": [
        3
      ],
      "name": "RootNode"
    },
    {
      "children": [
        4,
        5,
        6,
        7,
        8,
        9,
        10
      ],
      "matrix": [
        1.0,
        0.0,
        0.0,
        0.0,
        0.0,
        2.220446049250313e-16,
        -1.0,
        0.0,
        0.0,
        1.0,
        2.220446049250313e-16,
        0.0,
        -4.97087287902832,
        0.0,
        15.241741180419922,
        1.0
      ],
      "name": "Box001"
    },
    {
      "mesh": 0,
      "name": "Box001_01 - Default_0"
    },
    {
      "mesh": 1,
      "name": "Box001_13 - Default_0"
    },
    {
      "mesh": 2,
      "name": "Box001_02 - Default_0"
    },
    {
      "mesh": 3,
      "name": "Box001_08 - Default_0"
    },
    {
      "mesh": 4,
      "name": "Box001_03 - Default_0"
    },
    {
      "mesh": 5,
      "name": "Box001_09 - Default_0"
    },
    {
      "mesh": 6,
      "name": "Box001_07 - Default_0"
    }
  ],
  "samplers": [
    {
      "magFilter": 9729,
      "minFilter": 9987,
      "wrapS": 10497,
      "wrapT": 10497
    }
  ],
  "scene": 0,
  "scenes": [
    {
      "name": "Sketchfab_Scene",
      "nodes": [
        0
      ]
    }
  ],
  "textures": [
    {
      "sampler": 0,
      "source": 0
    },
    {
      "sampler": 0,
      "source": 1
    },
    {
      "sampler": 0,
      "source": 2
    },
    {
      "sampler": 0,
      "source": 3
    },
    {
      "sampler": 0,
      "source": 4
    },
    {
      "sampler": 0,
      "source": 5
    }
  ]
}
